<?xml version="1.0" standalone="no"?>
<!DOCTYPE svg PUBLIC "-//W3C//DTD SVG 20010904//EN"
 "http://www.w3.org/TR/2001/REC-SVG-20010904/DTD/svg10.dtd">
<svg version="1.0" xmlns="http://www.w3.org/2000/svg"
 width="512.000000pt" height="512.000000pt" viewBox="0 0 512.000000 512.000000"
 preserveAspectRatio="xMidYMid meet">
<metadata>
Created by potrace 1.14, written by Peter Selinger 2001-2017
</metadata>
<g transform="translate(0.000000,512.000000) scale(0.100000,-0.100000)"
fill="#000000" stroke="none">
<path d="M4976 5113 c-3 -4 -262 -79 -411 -119 -49 -14 -101 -30 -114 -37 -54
-27 -54 -28 -54 -426 l0 -369 -54 24 c-29 13 -62 24 -73 24 -11 0 -55 32 -98
72 -320 297 -699 495 -1122 586 -52 12 -117 24 -145 27 -27 4 -61 9 -75 12
-62 12 -431 10 -540 -3 -380 -47 -716 -168 -1017 -366 -601 -396 -994 -1041
-1062 -1743 -9 -99 -8 -476 2 -505 3 -8 8 -37 11 -65 3 -27 8 -61 11 -75 3
-14 10 -47 15 -75 16 -78 57 -225 88 -312 l29 -79 -64 -34 c-74 -38 -155 -113
-207 -192 -112 -168 -123 -398 -29 -588 34 -70 65 -103 427 -468 374 -375 393
-392 434 -398 l44 -6 237 236 c130 130 239 236 243 236 3 0 44 -18 90 -39 198
-93 454 -175 608 -195 19 -3 51 -7 70 -11 111 -18 196 -22 375 -20 110 2 211
5 225 8 14 3 45 8 70 11 164 21 369 75 530 138 149 59 362 170 447 234 35 27
50 74 35 113 -8 22 -2 30 66 85 131 106 115 98 151 80 81 -40 168 50 126 130
-17 32 -25 17 81 149 45 57 64 73 75 66 46 -29 106 3 156 83 127 201 232 449
293 688 16 66 23 101 44 223 15 88 21 182 21 347 -1 199 -10 309 -35 430 -5
25 -12 59 -15 75 -23 149 -150 484 -243 644 l-25 43 1 502 c0 275 1 511 1 522
1 21 13 26 141 58 47 12 271 79 307 92 41 15 73 58 73 98 0 50 -59 98 -115 94
-14 -1 -27 -4 -29 -5z"/>
</g>
</svg>
